# xmcd CD database file
#
# Track frame offsets:
#	150
#	20970
#	40435
#	62885
#	83227
#	111142
#	132137
#	151075
#	170467
#	188775
#	204090
#	222845
#
# Disc length: 3220 seconds
#
# Revision: 2
# Processed by: cddbd v1.5.2PL0 Copyright (c) Steve Scherf et al.
# Submitted via: CDex 1.70beta3
#
DISCID=a20c920c
DTITLE=Den Of Thieves - Conspiracy
DYEAR=1995
DGENRE=Hard Rock
TTITLE0=New World
TTITLE1=Call Of The Wild
TTITLE2=Invation
TTITLE3=Rock On Through The Night
TTITLE4=Confusion
TTITLE5=Calling Your Name
TTITLE6=Stick To Your Guns
TTITLE7=Tuggin' At My Heartstrings
TTITLE8=Carrie
TTITLE9=Heart Attack
TTITLE10=Stranger Things
TTITLE11=Hold On
EXTD=YEAR: 1995
EXTT0=
EXTT1=
EXTT2=
EXTT3=
EXTT4=
EXTT5=
EXTT6=
EXTT7=
EXTT8=
EXTT9=
EXTT10=
EXTT11=
PLAYORDER=
